<svg width="40" height="40" viewBox="0 0 40 40" fill="none" xmlns="http://www.w3.org/2000/svg">
<g clip-path="url(#clip0_1_416)">
<path d="M35.5441 11.026C35.5441 9.533 34.3641 8.323 32.9081 8.323C31.4521 8.323 30.2731 9.533 30.2731 11.026V17.621H29.2631V6.927C29.2631 5.469 28.0831 4.287 26.6271 4.287C25.1711 4.287 23.9921 5.469 23.9921 6.927V17.621H22.9821V5.194C22.9821 3.706 21.8021 2.5 20.3461 2.5C18.8901 2.5 17.7101 3.706 17.7101 5.194V17.621H16.7001V7.797C16.7001 6.309 15.5201 5.103 14.0641 5.103C12.6081 5.103 11.4291 6.309 11.4291 7.797V7.8V17.622V22.314L7.73306 19.684C6.52606 18.477 4.56906 18.477 3.36106 19.684C2.15406 20.891 2.15406 22.848 3.36106 24.056L12.9261 33.621C15.3241 36.019 18.6361 37.502 22.2941 37.502C29.4771 37.502 35.3121 31.782 35.5231 24.649H35.5431V11.028L35.5441 11.026Z" fill="#FFC84D"/>
</g>
<defs>
<clipPath id="clip0_1_416">
<rect width="40" height="40" fill="white"/>
</clipPath>
</defs>
</svg>
