<svg width="40" height="40" viewBox="0 0 40 40" fill="none" xmlns="http://www.w3.org/2000/svg">
<g clip-path="url(#clip0_1_405)">
<path d="M31.12 20.163V12.77H4.5V20.163C4.5 28.723 11.44 35.663 20 35.663C28.56 35.663 35.5 28.723 35.5 20.163H31.12Z" fill="#FFC84D"/>
<path d="M18.9221 15.55C18.9221 17.596 17.3051 19.254 15.3091 19.254C13.3801 19.254 11.8181 17.699 11.7161 15.748C11.6141 17.7 10.0521 19.254 8.12314 19.254C7.41114 19.254 6.75114 19.035 6.19214 18.671C6.81414 19.893 8.04714 20.736 9.48414 20.736C10.5331 20.736 11.4771 20.288 12.1551 19.573C13.0221 20.289 14.1101 20.736 15.3101 20.736C17.2641 20.736 18.9411 19.587 19.7831 17.923C19.2541 17.279 18.9221 16.458 18.9221 15.55Z" fill="#F78700"/>
<path d="M29.6821 5.72598C27.9411 5.72598 26.4891 6.98498 26.1471 8.66098V8.04198C26.1471 5.99598 24.5301 4.33698 22.5341 4.33698C20.5381 4.33698 18.9211 5.99598 18.9211 8.04198V15.551C18.9211 16.459 19.2521 17.28 19.7811 17.924C20.4441 18.731 21.4241 19.255 22.5341 19.255C24.2741 19.255 25.7261 17.992 26.0691 16.312V25.288H33.2941V9.42397V9.41998C33.2941 7.38098 31.6771 5.72698 29.6821 5.72698V5.72598Z" fill="#FFC84D"/>
<path d="M11.716 15.748C11.818 17.7 13.38 19.254 15.309 19.254C17.304 19.254 18.922 17.595 18.922 15.55V9.28798C18.922 7.24198 17.305 5.58398 15.309 5.58398C13.313 5.58398 11.696 7.24298 11.696 9.28798V11.349C11.501 9.49198 9.98503 8.04098 8.12203 8.04098C6.12703 8.04098 4.50903 9.69998 4.50903 11.746V15.551C4.50903 16.867 5.18203 18.015 6.19003 18.672C6.75003 19.037 7.40903 19.255 8.12103 19.255C10.05 19.255 11.612 17.7 11.714 15.749L11.716 15.748Z" fill="#FFC84D"/>
<path d="M25.875 21.3149H22.82C20.853 21.3149 19.259 19.7209 19.259 17.7539C19.259 15.7869 20.853 14.1929 22.82 14.1929H29.742C29.985 14.1929 30.223 14.2129 30.458 14.2419C29.588 13.3369 28.371 12.7679 27.016 12.7679H22.545V12.7959C19.922 12.9419 17.835 15.0939 17.835 17.7529C17.835 19.8409 19.121 21.6239 20.943 22.3659V25.3559C22.271 23.6789 23.95 22.2909 25.875 21.3139V21.3149Z" fill="#F78700"/>
<path d="M30.458 14.243C30.223 14.214 29.985 14.194 29.742 14.194H22.82C20.853 14.194 19.259 15.788 19.259 17.755C19.259 19.722 20.853 21.316 22.82 21.316H25.875C23.949 22.292 22.271 23.681 20.943 25.358C18.949 27.876 17.751 31.051 17.751 34.513H23.328L32.552 24.476V21.316H34.471C35.039 21.316 35.5 20.855 35.5 20.287V19.953C35.5 17.016 33.299 14.598 30.458 14.244V14.243Z" fill="#FFC84D"/>
</g>
<defs>
<clipPath id="clip0_1_405">
<rect width="40" height="40" fill="white"/>
</clipPath>
</defs>
</svg>
