<svg width="40" height="40" viewBox="0 0 40 40" fill="none" xmlns="http://www.w3.org/2000/svg">
<g clip-path="url(#clip0_1_390)">
<path d="M21.8861 3.14698C21.5791 1.41298 19.9551 0.249982 18.2581 0.547982C16.5611 0.845982 15.4351 2.49298 15.7421 4.22698L19.2211 23.903L25.3651 22.823L21.8861 3.14898V3.14698Z" fill="#FFC84D"/>
<path d="M31.9321 4.47598C32.0181 2.89198 30.9501 1.45898 29.3831 1.18198C27.8151 0.903982 26.3241 1.88398 25.8651 3.40298L25.8281 3.39598L25.7611 3.77598V3.77798V3.77998L22.5881 21.83L28.7311 22.916L31.9721 4.48198L31.9341 4.47498L31.9321 4.47598Z" fill="#FFC84D"/>
<path d="M26.183 23.868V18.529H6.13696V23.868C6.13696 31.524 12.344 37.731 20 37.731C27.656 37.731 33.863 31.524 33.863 23.868H26.183Z" fill="#FFC84D"/>
<path d="M12.104 20.564C12.189 22.178 13.48 23.463 15.075 23.463C16.725 23.463 18.062 22.092 18.062 20.4V15.223C18.062 13.531 16.725 12.16 15.075 12.16C13.425 12.16 12.088 13.531 12.088 15.223V16.926C11.926 15.391 10.673 14.192 9.133 14.192C7.483 14.192 6.146 15.563 6.146 17.255V20.401C6.146 21.489 6.703 22.438 7.536 22.982C7.999 23.284 8.544 23.464 9.133 23.464C10.728 23.464 12.019 22.179 12.104 20.565V20.564Z" fill="#FFC84D"/>
<path d="M23.8299 17.166H18.0479V21.465H23.8299V17.166Z" fill="#FFC84D"/>
<path d="M29.542 18.612C29.271 18.568 28.997 18.529 28.714 18.529H22.523C20.764 18.529 19.338 19.955 19.338 21.714C19.338 23.473 20.764 24.899 22.523 24.899H25.255C23.533 25.772 22.032 27.014 20.844 28.514C19.061 30.766 17.989 33.605 17.989 36.702H22.977L31.227 27.725V24.899H32.943C33.451 24.899 33.863 24.487 33.863 23.978V23.679C33.863 21.119 31.99 19.011 29.542 18.612Z" fill="#FFC84D"/>
<path d="M18.0619 20.4C18.0619 22.092 16.7249 23.463 15.0749 23.463C13.4799 23.463 12.1889 22.178 12.1039 20.564C12.0189 22.178 10.7279 23.463 9.13289 23.463C8.54389 23.463 7.99889 23.282 7.53589 22.981C8.04989 23.991 9.06989 24.689 10.2579 24.689C11.1249 24.689 11.9059 24.319 12.4659 23.728C13.1829 24.32 14.0819 24.689 15.0749 24.689C17.3849 24.689 19.2569 22.769 19.2569 20.401L18.0619 20.4Z" fill="#FF8800"/>
<path d="M25.2549 24.898H22.5229C20.7639 24.898 19.3379 23.472 19.3379 21.713C19.3379 19.954 20.7639 18.528 22.5229 18.528H28.7139C28.9979 18.528 29.2709 18.567 29.5419 18.612C28.7479 17.73 27.6099 17.165 26.3299 17.165H22.2769V17.19C19.8819 17.32 17.9739 19.286 17.9739 21.713C17.9739 23.631 19.1639 25.263 20.8429 25.932V28.512C22.0309 27.012 23.5319 25.77 25.2539 24.897L25.2549 24.898Z" fill="#FF8800"/>
</g>
<defs>
<clipPath id="clip0_1_390">
<rect width="40" height="40" fill="white"/>
</clipPath>
</defs>
</svg>
