<svg width="15" height="15" viewBox="0 0 15 15" fill="none" xmlns="http://www.w3.org/2000/svg">
<rect x="0.5" y="0.5" width="14" height="14" rx="7" stroke="white"/>
<path d="M6.87499 9.11223V9.06961C6.87973 8.61744 6.92708 8.25759 7.01704 7.99007C7.107 7.72255 7.23484 7.50593 7.40056 7.34021C7.56628 7.17449 7.76515 7.02179 7.99715 6.88211C8.13683 6.79689 8.26231 6.69627 8.37357 6.58027C8.48484 6.4619 8.57244 6.32577 8.63636 6.17189C8.70265 6.018 8.73579 5.84755 8.73579 5.66052C8.73579 5.42851 8.68134 5.22728 8.57244 5.05683C8.46354 4.88637 8.31794 4.75498 8.13565 4.66265C7.95336 4.57032 7.75094 4.52416 7.5284 4.52416C7.33427 4.52416 7.14725 4.5644 6.96732 4.6449C6.7874 4.72539 6.63707 4.85205 6.51633 5.02487C6.39559 5.19769 6.32575 5.42378 6.30681 5.70314H5.41193C5.43087 5.30067 5.53503 4.95621 5.72443 4.66976C5.91619 4.3833 6.16832 4.16431 6.48082 4.01279C6.79569 3.86128 7.14488 3.78552 7.5284 3.78552C7.94507 3.78552 8.30729 3.86838 8.61505 4.0341C8.92518 4.19982 9.16429 4.42709 9.33238 4.71592C9.50284 5.00475 9.58806 5.33382 9.58806 5.70314C9.58806 5.96355 9.54782 6.19911 9.46732 6.40981C9.3892 6.62051 9.27556 6.80872 9.12642 6.97444C8.97963 7.14016 8.80208 7.28694 8.59374 7.41478C8.38541 7.54499 8.21851 7.6823 8.09303 7.82672C7.96756 7.96876 7.87641 8.13803 7.8196 8.33453C7.76278 8.53102 7.732 8.77605 7.72727 9.06961V9.11223H6.87499ZM7.32954 11.2145C7.15435 11.2145 7.00402 11.1518 6.87855 11.0263C6.75307 10.9008 6.69034 10.7505 6.69034 10.5753C6.69034 10.4001 6.75307 10.2498 6.87855 10.1243C7.00402 9.99883 7.15435 9.93609 7.32954 9.93609C7.50473 9.93609 7.65506 9.99883 7.78053 10.1243C7.90601 10.2498 7.96874 10.4001 7.96874 10.5753C7.96874 10.6913 7.93915 10.7978 7.87997 10.8949C7.82315 10.992 7.74621 11.0701 7.64914 11.1293C7.55445 11.1861 7.44791 11.2145 7.32954 11.2145Z" fill="white"/>
</svg>
