<svg width="17" height="15" viewBox="0 0 17 15" fill="none" xmlns="http://www.w3.org/2000/svg">
<path d="M8.5 0.5C9.94643 0.5 11.2842 0.766663 12.5134 1.29999C13.7426 1.83331 14.7143 2.55853 15.4286 3.47563C16.1429 4.39269 16.5 5.39303 16.5 6.47663C16.5 7.56019 16.1429 8.56194 15.4286 9.48188C14.7143 10.4018 13.744 11.1284 12.5178 11.6617C11.2917 12.195 9.95237 12.4617 8.5 12.4617C8.04167 12.4617 7.56844 12.4307 7.08035 12.3686C4.96129 13.7626 3.83334 14.468 3.69644 14.4849C3.63095 14.5075 3.56844 14.5047 3.50892 14.4765C3.48511 14.4596 3.46726 14.437 3.45535 14.4088C3.44344 14.3805 3.4375 14.3552 3.4375 14.3326V14.2987C3.47323 14.0786 3.74404 13.1615 4.25 11.5474C3.10119 11.0057 2.18899 10.2875 1.51339 9.39297C0.837798 8.49847 0.5 7.52635 0.5 6.47663C0.5 5.39303 0.857143 4.39269 1.57143 3.47563C2.28572 2.55853 3.25744 1.83331 4.48661 1.29999C5.71577 0.766663 7.05357 0.5 8.5 0.5Z" />
</svg>
