<svg width="21" height="20" viewBox="0 0 21 20" fill="none" xmlns="http://www.w3.org/2000/svg">
<path d="M17.3333 5L3 9.16667L2.25 7.16667C2 6.25 2.5 5.33333 3.33334 5.08333L14.5833 1.75C15.5 1.5 16.4167 2 16.6667 2.83334L17.3333 5Z" stroke="white" stroke-width="1.45833" stroke-linecap="round" stroke-linejoin="round"/>
<path d="M5.66669 4.41663L8.25002 7.66663" stroke="white" stroke-width="1.45833" stroke-linecap="round" stroke-linejoin="round"/>
<path d="M10.8333 2.83337L13.4166 6.16671" stroke="white" stroke-width="1.45833" stroke-linecap="round" stroke-linejoin="round"/>
<path d="M3 9.16663H18V15.8333C18 16.2753 17.8244 16.6992 17.5118 17.0118C17.1993 17.3244 16.7754 17.5 16.3333 17.5H4.66667C4.22464 17.5 3.80072 17.3244 3.48816 17.0118C3.17559 16.6992 3 16.2753 3 15.8333V9.16663Z" stroke="white" stroke-width="1.45833" stroke-linecap="round" stroke-linejoin="round"/>
</svg>
